<?xml version="1.0" encoding="UTF-8" standalone="no"?>
<!DOCTYPE svg PUBLIC "-//W3C//DTD SVG 1.1//EN"
    "http://www.w3.org/Graphics/SVG/1.1/DTD/svg11.dtd">
<!-- Generated by graphviz version 2.43.0 (0)
 -->
<!-- Title: Elements Pages: 1 -->
<svg width="1050pt" height="258pt"
     viewBox="0.00 0.00 1050.00 258.00" xmlns="http://www.w3.org/2000/svg">
    <g id="graph0" class="graph" transform="scale(1 1) rotate(0) translate(4 254)">
        <title>Elements</title>
        <polygon fill="white" stroke="transparent" points="-4,4 -4,-254 1046,-254 1046,4 -4,4"/>
        <g id="clust1" class="cluster">
            <title>cluster_0</title>
            <polygon fill="none" stroke="lightgrey" stroke-dasharray="5,2"
                     points="8,-59 8,-242 345,-242 345,-59 8,-59"/>
            <text text-anchor="middle" x="176.5" y="-226.8" font-family="Helvetica,Arial,sans-serif" font-size="14.00">
                User Inputs
            </text>
        </g>
        <g id="clust2" class="cluster">
            <title>cluster_1</title>
            <polygon fill="none" stroke="lightgrey" stroke-dasharray="5,2"
                     points="446,-113 446,-188 1034,-188 1034,-113 446,-113"/>
            <text text-anchor="middle" x="740" y="-172.8" font-family="Helvetica,Arial,sans-serif" font-size="14.00">
                Processing
            </text>
        </g>
        <g id="clust3" class="cluster">
            <title>cluster_2</title>
            <polygon fill="none" stroke="lightgrey" stroke-dasharray="5,2"
                     points="450.5,-8 450.5,-83 787,-83 787,-8 450.5,-8"/>
            <text text-anchor="middle" x="618.75" y="-67.8" font-family="Helvetica,Arial,sans-serif" font-size="14.00">
                Output
            </text>
        </g>
        <!-- u -->
        <g id="node1" class="node">
            <title>u</title>
            <path fill="lightgreen" stroke="lightblue" stroke-width="2"
                  d="M58,-130C58,-130 28,-130 28,-130 22,-130 16,-124 16,-118 16,-118 16,-106 16,-106 16,-100 22,-94 28,-94 28,-94 58,-94 58,-94 64,-94 70,-100 70,-106 70,-106 70,-118 70,-118 70,-124 64,-130 58,-130"/>
            <text text-anchor="middle" x="43" y="-108.3" font-family="Helvetica,Arial,sans-serif" font-size="14.00">
                User
            </text>
        </g>
        <!-- q -->
        <g id="node2" class="node">
            <title>q</title>
            <path fill="lightyellow" stroke="lightblue" stroke-width="2"
                  d="M290.5,-211C290.5,-211 204.5,-211 204.5,-211 198.5,-211 192.5,-205 192.5,-199 192.5,-199 192.5,-187 192.5,-187 192.5,-181 198.5,-175 204.5,-175 204.5,-175 290.5,-175 290.5,-175 296.5,-175 302.5,-181 302.5,-187 302.5,-187 302.5,-199 302.5,-199 302.5,-205 296.5,-211 290.5,-211"/>
            <text text-anchor="middle" x="247.5" y="-189.3" font-family="Helvetica,Arial,sans-serif" font-size="14.00">
                Job Description
            </text>
        </g>
        <!-- u&#45;&gt;q -->
        <g id="edge1" class="edge">
            <title>u&#45;&gt;q</title>
            <path fill="none" stroke="black"
                  d="M66.94,-130.08C73.5,-134.71 80.82,-139.39 88,-143 117.77,-157.96 152.92,-169.59 182.55,-177.86"/>
            <polygon fill="black" stroke="black" points="181.8,-181.28 192.37,-180.53 183.64,-174.53 181.8,-181.28"/>
            <text text-anchor="middle" x="114" y="-167.8" font-family="Helvetica,Arial,sans-serif" font-size="14.00">
                provides
            </text>
        </g>
        <!-- als -->
        <g id="node3" class="node">
            <title>als</title>
            <path fill="lightyellow" stroke="lightblue" stroke-width="2"
                  d="M325,-157C325,-157 170,-157 170,-157 164,-157 158,-151 158,-145 158,-145 158,-133 158,-133 158,-127 164,-121 170,-121 170,-121 325,-121 325,-121 331,-121 337,-127 337,-133 337,-133 337,-145 337,-145 337,-151 331,-157 325,-157"/>
            <text text-anchor="middle" x="247.5" y="-135.3" font-family="Helvetica,Arial,sans-serif" font-size="14.00">
                Existing Application Letters
            </text>
        </g>
        <!-- u&#45;&gt;als -->
        <g id="edge2" class="edge">
            <title>u&#45;&gt;als</title>
            <path fill="none" stroke="black" d="M70.06,-115.47C90.03,-118.14 118.94,-121.99 147.6,-125.81"/>
            <polygon fill="black" stroke="black" points="147.34,-129.31 157.71,-127.16 148.26,-122.37 147.34,-129.31"/>
            <text text-anchor="middle" x="114" y="-127.8" font-family="Helvetica,Arial,sans-serif" font-size="14.00">
                provides
            </text>
        </g>
        <!-- ei -->
        <g id="node4" class="node">
            <title>ei</title>
            <path fill="lightyellow" stroke="lightblue" stroke-width="2"
                  d="M296,-103C296,-103 199,-103 199,-103 193,-103 187,-97 187,-91 187,-91 187,-79 187,-79 187,-73 193,-67 199,-67 199,-67 296,-67 296,-67 302,-67 308,-73 308,-79 308,-79 308,-91 308,-91 308,-97 302,-103 296,-103"/>
            <text text-anchor="middle" x="247.5" y="-81.3" font-family="Helvetica,Arial,sans-serif" font-size="14.00">
                Extra Instructions
            </text>
        </g>
        <!-- u&#45;&gt;ei -->
        <g id="edge3" class="edge">
            <title>u&#45;&gt;ei</title>
            <path fill="none" stroke="black"
                  d="M70.32,-103.3C76.09,-101.65 82.21,-100.1 88,-99 116.76,-93.54 148.88,-90.2 176.64,-88.16"/>
            <polygon fill="black" stroke="black" points="176.92,-91.65 186.65,-87.47 176.44,-84.67 176.92,-91.65"/>
            <text text-anchor="middle" x="114" y="-102.8" font-family="Helvetica,Arial,sans-serif" font-size="14.00">
                provides
            </text>
        </g>
        <!-- api -->
        <g id="node5" class="node">
            <title>api</title>
            <path fill="lightpink" stroke="lightblue" stroke-width="2"
                  d="M569,-157C569,-157 466,-157 466,-157 460,-157 454,-151 454,-145 454,-145 454,-133 454,-133 454,-127 460,-121 466,-121 466,-121 569,-121 569,-121 575,-121 581,-127 581,-133 581,-133 581,-145 581,-145 581,-151 575,-157 569,-157"/>
            <text text-anchor="middle" x="517.5" y="-135.3" font-family="Helvetica,Arial,sans-serif" font-size="14.00">
                Embedding Model
            </text>
        </g>
        <!-- q&#45;&gt;api -->
        <g id="edge4" class="edge">
            <title>q&#45;&gt;api</title>
            <path fill="none" stroke="black"
                  d="M302.79,-183.57C340.3,-176.88 391.29,-167.44 436,-158 438.61,-157.45 441.27,-156.88 443.95,-156.29"/>
            <polygon fill="black" stroke="black" points="444.72,-159.71 453.72,-154.12 443.2,-152.87 444.72,-159.71"/>
            <text text-anchor="middle" x="395.5" y="-176.8" font-family="Helvetica,Arial,sans-serif" font-size="14.00">
                processed by
            </text>
        </g>
        <!-- als&#45;&gt;api -->
        <g id="edge5" class="edge">
            <title>als&#45;&gt;api</title>
            <path fill="none" stroke="black" d="M337.37,-139C371.74,-139 410.6,-139 443.32,-139"/>
            <polygon fill="black" stroke="black" points="443.71,-142.5 453.71,-139 443.71,-135.5 443.71,-142.5"/>
            <text text-anchor="middle" x="395.5" y="-142.8" font-family="Helvetica,Arial,sans-serif" font-size="14.00">
                processed by
            </text>
        </g>
        <!-- db -->
        <g id="node6" class="node">
            <title>db</title>
            <path fill="lightgrey" stroke="lightblue" stroke-width="2"
                  d="M782,-157C782,-157 690,-157 690,-157 684,-157 678,-151 678,-145 678,-145 678,-133 678,-133 678,-127 684,-121 690,-121 690,-121 782,-121 782,-121 788,-121 794,-127 794,-133 794,-133 794,-145 794,-145 794,-151 788,-157 782,-157"/>
            <text text-anchor="middle" x="736" y="-135.3" font-family="Helvetica,Arial,sans-serif" font-size="14.00">
                Vector Database
            </text>
        </g>
        <!-- als&#45;&gt;db -->
        <g id="edge7" class="edge">
            <title>als&#45;&gt;db</title>
            <path fill="none" stroke="black"
                  d="M337.03,-155.41C343.1,-156.35 349.14,-157.22 355,-158 489.37,-175.86 526.5,-181.54 660,-158 662.64,-157.54 665.32,-157.03 668.02,-156.49"/>
            <polygon fill="black" stroke="black" points="668.8,-159.9 677.86,-154.4 667.35,-153.05 668.8,-159.9"/>
            <text text-anchor="middle" x="517.5" y="-176.8" font-family="Helvetica,Arial,sans-serif" font-size="14.00">
                stores in
            </text>
        </g>
        <!-- llm -->
        <g id="node8" class="node">
            <title>llm</title>
            <path fill="lightpink" stroke="lightblue" stroke-width="2"
                  d="M564.5,-52C564.5,-52 470.5,-52 470.5,-52 464.5,-52 458.5,-46 458.5,-40 458.5,-40 458.5,-28 458.5,-28 458.5,-22 464.5,-16 470.5,-16 470.5,-16 564.5,-16 564.5,-16 570.5,-16 576.5,-22 576.5,-28 576.5,-28 576.5,-40 576.5,-40 576.5,-46 570.5,-52 564.5,-52"/>
            <text text-anchor="middle" x="517.5" y="-30.3" font-family="Helvetica,Arial,sans-serif" font-size="14.00">
                Language Model
            </text>
        </g>
        <!-- ei&#45;&gt;llm -->
        <g id="edge10" class="edge">
            <title>ei&#45;&gt;llm</title>
            <path fill="none" stroke="black" d="M308.31,-73.62C349.82,-65.72 405.19,-55.18 448.39,-46.96"/>
            <polygon fill="black" stroke="black" points="449.08,-50.39 458.25,-45.08 447.78,-43.52 449.08,-50.39"/>
            <text text-anchor="middle" x="395.5" y="-68.8" font-family="Helvetica,Arial,sans-serif" font-size="14.00">
                augments
            </text>
        </g>
        <!-- api&#45;&gt;db -->
        <g id="edge6" class="edge">
            <title>api&#45;&gt;db</title>
            <path fill="none" stroke="black" d="M581.12,-139C608.14,-139 639.8,-139 667.36,-139"/>
            <polygon fill="black" stroke="black" points="667.7,-142.5 677.7,-139 667.7,-135.5 667.7,-142.5"/>
            <text text-anchor="middle" x="629.5" y="-142.8" font-family="Helvetica,Arial,sans-serif" font-size="14.00">
                stores in
            </text>
        </g>
        <!-- cp -->
        <g id="node7" class="node">
            <title>cp</title>
            <path fill="lightyellow" stroke="lightblue" stroke-width="2"
                  d="M1014,-157C1014,-157 926,-157 926,-157 920,-157 914,-151 914,-145 914,-145 914,-133 914,-133 914,-127 920,-121 926,-121 926,-121 1014,-121 1014,-121 1020,-121 1026,-127 1026,-133 1026,-133 1026,-145 1026,-145 1026,-151 1020,-157 1014,-157"/>
            <text text-anchor="middle" x="970" y="-135.3" font-family="Helvetica,Arial,sans-serif" font-size="14.00">
                Custom Prompt
            </text>
        </g>
        <!-- db&#45;&gt;cp -->
        <g id="edge8" class="edge">
            <title>db&#45;&gt;cp</title>
            <path fill="none" stroke="black" d="M794.05,-139C827.12,-139 868.9,-139 903.34,-139"/>
            <polygon fill="black" stroke="black" points="903.77,-142.5 913.77,-139 903.77,-135.5 903.77,-142.5"/>
            <text text-anchor="middle" x="854" y="-142.8" font-family="Helvetica,Arial,sans-serif" font-size="14.00">
                retrieves from
            </text>
        </g>
        <!-- cp&#45;&gt;llm -->
        <g id="edge9" class="edge">
            <title>cp&#45;&gt;llm</title>
            <path fill="none" stroke="black"
                  d="M913.87,-125.57C879.44,-117.23 834.17,-106.35 794,-97 707.47,-76.85 685.57,-72.98 599,-53 594.91,-52.06 590.7,-51.08 586.45,-50.09"/>
            <polygon fill="black" stroke="black" points="587.06,-46.64 576.52,-47.77 585.47,-53.45 587.06,-46.64"/>
            <text text-anchor="middle" x="736" y="-100.8" font-family="Helvetica,Arial,sans-serif" font-size="14.00">
                forms
            </text>
        </g>
        <!-- ld -->
        <g id="node9" class="node">
            <title>ld</title>
            <path fill="lightyellow" stroke="lightblue" stroke-width="2"
                  d="M767,-52C767,-52 705,-52 705,-52 699,-52 693,-46 693,-40 693,-40 693,-28 693,-28 693,-22 699,-16 705,-16 705,-16 767,-16 767,-16 773,-16 779,-22 779,-28 779,-28 779,-40 779,-40 779,-46 773,-52 767,-52"/>
            <text text-anchor="middle" x="736" y="-30.3" font-family="Helvetica,Arial,sans-serif" font-size="14.00">
                Letter Draft
            </text>
        </g>
        <!-- llm&#45;&gt;ld -->
        <g id="edge11" class="edge">
            <title>llm&#45;&gt;ld</title>
            <path fill="none" stroke="black" d="M576.52,-34C609.63,-34 650.81,-34 682.89,-34"/>
            <polygon fill="black" stroke="black" points="682.96,-37.5 692.96,-34 682.96,-30.5 682.96,-37.5"/>
            <text text-anchor="middle" x="629.5" y="-37.8" font-family="Helvetica,Arial,sans-serif" font-size="14.00">
                generates
            </text>
        </g>
        <!-- ld&#45;&gt;u -->
        <g id="edge12" class="edge">
            <title>ld&#45;&gt;u</title>
            <path fill="none" stroke="black"
                  d="M692.77,-24.56C661.97,-18.17 619.13,-10.32 581,-7 392.35,9.41 339.45,-3.84 158,-58 130.46,-66.22 101.19,-80.21 79.21,-91.89"/>
            <polygon fill="black" stroke="black" points="77.39,-88.89 70.26,-96.73 80.72,-95.05 77.39,-88.89"/>
            <text text-anchor="middle" x="395.5" y="-11.8" font-family="Helvetica,Arial,sans-serif" font-size="14.00">
                reviews
            </text>
        </g>
    </g>
</svg>
